# This file uses centimeters as units for non-parametric coordinates.

mtllib sphere.mtl
g default
v 0.218508 -0.707107 -0.672499
v -0.572061 -0.707107 -0.415627
v -0.572061 -0.707107 0.415627
v 0.218508 -0.707107 0.672499
v 0.707107 -0.707107 0.000000
v 0.309017 0.000000 -0.951057
v -0.809017 0.000000 -0.587785
v -0.809017 0.000000 0.587785
v 0.309017 0.000000 0.951057
v 1.000000 0.000000 0.000000
v 0.218508 0.707107 -0.672499
v -0.572061 0.707107 -0.415627
v -0.572061 0.707107 0.415627
v 0.218508 0.707107 0.672499
v 0.707107 0.707107 0.000000
v 0.000000 -1.000000 0.000000
v 0.000000 1.000000 0.000000
vt 0.000000 0.250000
vt 0.200000 0.250000
vt 0.400000 0.250000
vt 0.600000 0.250000
vt 0.800000 0.250000
vt 1.000000 0.250000
vt 0.000000 0.500000
vt 0.200000 0.500000
vt 0.400000 0.500000
vt 0.600000 0.500000
vt 0.800000 0.500000
vt 1.000000 0.500000
vt 0.000000 0.750000
vt 0.200000 0.750000
vt 0.400000 0.750000
vt 0.600000 0.750000
vt 0.800000 0.750000
vt 1.000000 0.750000
vt 0.100000 0.000000
vt 0.300000 0.000000
vt 0.500000 0.000000
vt 0.700000 0.000000
vt 0.900000 0.000000
vt 0.100000 1.000000
vt 0.300000 1.000000
vt 0.500000 1.000000
vt 0.700000 1.000000
vt 0.900000 1.000000
vn -0.293003 -0.317740 -0.901771
vn -0.293003 -0.317740 -0.901771
vn -0.293003 -0.317740 -0.901771
vn -0.293003 -0.317740 -0.901771
vn -0.948178 -0.317740 -0.000000
vn -0.948178 -0.317740 -0.000000
vn -0.948178 -0.317740 -0.000000
vn -0.948178 -0.317740 -0.000000
vn -0.293003 -0.317740 0.901771
vn -0.293003 -0.317740 0.901771
vn -0.293003 -0.317740 0.901771
vn -0.293003 -0.317740 0.901771
vn 0.767092 -0.317740 0.557325
vn 0.767092 -0.317740 0.557325
vn 0.767092 -0.317740 0.557325
vn 0.767092 -0.317740 0.557325
vn 0.767092 -0.317740 -0.557325
vn 0.767092 -0.317740 -0.557325
vn 0.767092 -0.317740 -0.557325
vn 0.767092 -0.317740 -0.557325
vn -0.293003 0.317740 -0.901771
vn -0.293003 0.317740 -0.901771
vn -0.293003 0.317740 -0.901771
vn -0.293003 0.317740 -0.901771
vn -0.948178 0.317740 -0.000000
vn -0.948178 0.317740 -0.000000
vn -0.948178 0.317740 -0.000000
vn -0.948178 0.317740 -0.000000
vn -0.293003 0.317740 0.901771
vn -0.293003 0.317740 0.901771
vn -0.293003 0.317740 0.901771
vn -0.293003 0.317740 0.901771
vn 0.767092 0.317740 0.557325
vn 0.767092 0.317740 0.557325
vn 0.767092 0.317740 0.557325
vn 0.767092 0.317740 0.557325
vn 0.767092 0.317740 -0.557325
vn 0.767092 0.317740 -0.557325
vn 0.767092 0.317740 -0.557325
vn 0.767092 0.317740 -0.557325
vn -0.140830 -0.890115 -0.433430
vn -0.140830 -0.890115 -0.433430
vn -0.140830 -0.890115 -0.433430
vn -0.455736 -0.890115 0.000000
vn -0.455736 -0.890115 0.000000
vn -0.455736 -0.890115 0.000000
vn -0.140830 -0.890115 0.433430
vn -0.140830 -0.890115 0.433430
vn -0.140830 -0.890115 0.433430
vn 0.368698 -0.890115 0.267875
vn 0.368698 -0.890115 0.267875
vn 0.368698 -0.890115 0.267875
vn 0.368698 -0.890115 -0.267875
vn 0.368698 -0.890115 -0.267875
vn 0.368698 -0.890115 -0.267875
vn -0.140830 0.890115 -0.433430
vn -0.140830 0.890115 -0.433430
vn -0.140830 0.890115 -0.433430
vn -0.455736 0.890115 0.000000
vn -0.455736 0.890115 0.000000
vn -0.455736 0.890115 0.000000
vn -0.140830 0.890115 0.433430
vn -0.140830 0.890115 0.433430
vn -0.140830 0.890115 0.433430
vn 0.368698 0.890115 0.267875
vn 0.368698 0.890115 0.267875
vn 0.368698 0.890115 0.267875
vn 0.368698 0.890115 -0.267875
vn 0.368698 0.890115 -0.267875
vn 0.368698 0.890115 -0.267875
s off
g pSphere1
usemtl initialShadingGroup
f 1/1/1 2/2/2 7/8/3 6/7/4
f 2/2/5 3/3/6 8/9/7 7/8/8
f 3/3/9 4/4/10 9/10/11 8/9/12
f 4/4/13 5/5/14 10/11/15 9/10/16
f 5/5/17 1/6/18 6/12/19 10/11/20
f 6/7/21 7/8/22 12/14/23 11/13/24
f 7/8/25 8/9/26 13/15/27 12/14/28
f 8/9/29 9/10/30 14/16/31 13/15/32
f 9/10/33 10/11/34 15/17/35 14/16/36
f 10/11/37 6/12/38 11/18/39 15/17/40
f 2/2/41 1/1/42 16/19/43
f 3/3/44 2/2/45 16/20/46
f 4/4/47 3/3/48 16/21/49
f 5/5/50 4/4/51 16/22/52
f 1/6/53 5/5/54 16/23/55
f 11/13/56 12/14/57 17/24/58
f 12/14/59 13/15/60 17/25/61
f 13/15/62 14/16/63 17/26/64
f 14/16/65 15/17/66 17/27/67
f 15/17/68 11/18/69 17/28/70
g default
v 0.218508 -0.707107 -0.672499
v -0.572061 -0.707107 -0.415627
v -0.572061 -0.707107 0.415627
v 0.218508 -0.707107 0.672499
v 0.707107 -0.707107 0.000000
v 0.309017 0.000000 -0.951057
v -0.809017 0.000000 -0.587785
v -0.809017 0.000000 0.587785
v 0.309017 0.000000 0.951057
v 1.000000 0.000000 0.000000
v 0.218508 0.707107 -0.672499
v -0.572061 0.707107 -0.415627
v -0.572061 0.707107 0.415627
v 0.218508 0.707107 0.672499
v 0.707107 0.707107 0.000000
v 0.000000 -1.000000 0.000000
v 0.000000 1.000000 0.000000
vt 0.000000 0.250000
vt 0.200000 0.250000
vt 0.400000 0.250000
vt 0.600000 0.250000
vt 0.800000 0.250000
vt 1.000000 0.250000
vt 0.000000 0.500000
vt 0.200000 0.500000
vt 0.400000 0.500000
vt 0.600000 0.500000
vt 0.800000 0.500000
vt 1.000000 0.500000
vt 0.000000 0.750000
vt 0.200000 0.750000
vt 0.400000 0.750000
vt 0.600000 0.750000
vt 0.800000 0.750000
vt 1.000000 0.750000
vt 0.100000 0.000000
vt 0.300000 0.000000
vt 0.500000 0.000000
vt 0.700000 0.000000
vt 0.900000 0.000000
vt 0.100000 1.000000
vt 0.300000 1.000000
vt 0.500000 1.000000
vt 0.700000 1.000000
vt 0.900000 1.000000
vn -0.293003 -0.317740 -0.901771
vn -0.293003 -0.317740 -0.901771
vn -0.293003 -0.317740 -0.901771
vn -0.293003 -0.317740 -0.901771
vn -0.948178 -0.317740 -0.000000
vn -0.948178 -0.317740 -0.000000
vn -0.948178 -0.317740 -0.000000
vn -0.948178 -0.317740 -0.000000
vn -0.293003 -0.317740 0.901771
vn -0.293003 -0.317740 0.901771
vn -0.293003 -0.317740 0.901771
vn -0.293003 -0.317740 0.901771
vn 0.767092 -0.317740 0.557325
vn 0.767092 -0.317740 0.557325
vn 0.767092 -0.317740 0.557325
vn 0.767092 -0.317740 0.557325
vn 0.767092 -0.317740 -0.557325
vn 0.767092 -0.317740 -0.557325
vn 0.767092 -0.317740 -0.557325
vn 0.767092 -0.317740 -0.557325
vn -0.293003 0.317740 -0.901771
vn -0.293003 0.317740 -0.901771
vn -0.293003 0.317740 -0.901771
vn -0.293003 0.317740 -0.901771
vn -0.948178 0.317740 -0.000000
vn -0.948178 0.317740 -0.000000
vn -0.948178 0.317740 -0.000000
vn -0.948178 0.317740 -0.000000
vn -0.293003 0.317740 0.901771
vn -0.293003 0.317740 0.901771
vn -0.293003 0.317740 0.901771
vn -0.293003 0.317740 0.901771
vn 0.767092 0.317740 0.557325
vn 0.767092 0.317740 0.557325
vn 0.767092 0.317740 0.557325
vn 0.767092 0.317740 0.557325
vn 0.767092 0.317740 -0.557325
vn 0.767092 0.317740 -0.557325
vn 0.767092 0.317740 -0.557325
vn 0.767092 0.317740 -0.557325
vn -0.140830 -0.890115 -0.433430
vn -0.140830 -0.890115 -0.433430
vn -0.140830 -0.890115 -0.433430
vn -0.455736 -0.890115 0.000000
vn -0.455736 -0.890115 0.000000
vn -0.455736 -0.890115 0.000000
vn -0.140830 -0.890115 0.433430
vn -0.140830 -0.890115 0.433430
vn -0.140830 -0.890115 0.433430
vn 0.368698 -0.890115 0.267875
vn 0.368698 -0.890115 0.267875
vn 0.368698 -0.890115 0.267875
vn 0.368698 -0.890115 -0.267875
vn 0.368698 -0.890115 -0.267875
vn 0.368698 -0.890115 -0.267875
vn -0.140830 0.890115 -0.433430
vn -0.140830 0.890115 -0.433430
vn -0.140830 0.890115 -0.433430
vn -0.455736 0.890115 0.000000
vn -0.455736 0.890115 0.000000
vn -0.455736 0.890115 0.000000
vn -0.140830 0.890115 0.433430
vn -0.140830 0.890115 0.433430
vn -0.140830 0.890115 0.433430
vn 0.368698 0.890115 0.267875
vn 0.368698 0.890115 0.267875
vn 0.368698 0.890115 0.267875
vn 0.368698 0.890115 -0.267875
vn 0.368698 0.890115 -0.267875
vn 0.368698 0.890115 -0.267875
s off
g pSphere1
f 18/29/71 19/30/72 24/36/73 23/35/74
f 19/30/75 20/31/76 25/37/77 24/36/78
f 20/31/79 21/32/80 26/38/81 25/37/82
f 21/32/83 22/33/84 27/39/85 26/38/86
f 22/33/87 18/34/88 23/40/89 27/39/90
f 23/35/91 24/36/92 29/42/93 28/41/94
f 24/36/95 25/37/96 30/43/97 29/42/98
f 25/37/99 26/38/100 31/44/101 30/43/102
f 26/38/103 27/39/104 32/45/105 31/44/106
f 27/39/107 23/40/108 28/46/109 32/45/110
f 19/30/111 18/29/112 33/47/113
f 20/31/114 19/30/115 33/48/116
f 21/32/117 20/31/118 33/49/119
f 22/33/120 21/32/121 33/50/122
f 18/34/123 22/33/124 33/51/125
f 28/41/126 29/42/127 34/52/128
f 29/42/129 30/43/130 34/53/131
f 30/43/132 31/44/133 34/54/134
f 31/44/135 32/45/136 34/55/137
f 32/45/138 28/46/139 34/56/140
